<?xml version="1.0" encoding="UTF-8" standalone="no"?>
<!-- Created with Inkscape (http://www.inkscape.org/) -->

<svg
   version="1.1"
   id="svg1"
   width="766.76526"
   height="577.34106"
   viewBox="0 0 766.76526 577.34106"
   xmlns="http://www.w3.org/2000/svg"
   xmlns:svg="http://www.w3.org/2000/svg">
  <defs
     id="defs1" />
  <g
     id="g1"
     transform="translate(-176.61739,-271.32947)">
    <g
       id="g5"
       transform="translate(-233.86108,224.22521)">
      <path
         id="rect4"
         style="fill:#052347;fill-opacity:1;stroke-width:2.56439"
         d="m 775.80873,313.50827 v 201.68511 c 0,62.77201 -33.67072,78.60949 -80.03196,78.60949 -64.46348,0 -70.43881,-66.17669 -72.53912,-80.74816 -2.10031,-14.57147 -39.56681,-13.8729 -40.08359,-0.86146 9.8153,69.81644 43.93394,112.25206 110.65937,112.25206 61.20794,0 112.62543,-25.15482 117.0002,-98.88921 h 0.33557 V 515.19338 313.50827 Z" />
      <path
         style="display:inline;fill:#042346;fill-opacity:1;stroke-width:2.56439"
         d="M 751.19527,55.027919 C 688.80746,122.80977 607.13678,158.88373 620.15033,356.1265 544.57095,308.99095 474.68032,315.49242 410.47846,375.63085 455.79481,154.46616 596.86774,93.405574 751.19527,55.027919 Z"
         id="path1" />
      <path
         style="display:inline;fill:#045b8b;fill-opacity:1;stroke-width:2.56439"
         d="M 793.25154,47.104268 C 906.21432,120.65196 958.22595,222.64352 949.28645,353.07893 847.29489,276.07734 743.67795,275.46783 638.43567,351.2504 625.83912,225.48791 677.4444,124.10586 793.25154,47.104268 Z"
         id="path2" />
      <path
         style="display:inline;fill:#0386ba;fill-opacity:1;stroke-width:2.56439"
         d="M 836.52685,51.370845 C 898.91466,119.1527 980.58534,155.22666 967.57179,352.46943 1043.1512,305.33388 1113.0418,311.83534 1177.2437,371.97378 1131.9273,150.80909 990.85438,89.7485 836.52685,51.370845 Z"
         id="path3" />
    </g>
  </g>
</svg>
